<?xml version="1.0" encoding="UTF-8" standalone="no"?><!DOCTYPE svg PUBLIC "-//W3C//DTD SVG 1.1//EN" "http://www.w3.org/Graphics/SVG/1.1/DTD/svg11.dtd"><svg width="100%" height="100%" viewBox="0 0 8000 4500" version="1.1" xmlns="http://www.w3.org/2000/svg" xmlns:xlink="http://www.w3.org/1999/xlink" xml:space="preserve" xmlns:serif="http://www.serif.com/" style="fill-rule:evenodd;clip-rule:evenodd;stroke-linejoin:round;stroke-miterlimit:2;"><rect id="Page-9" serif:id="Page 9" x="0" y="0" width="8000" height="4500" style="fill:none;"/><path d="M4592.22,1187.91c-83.075,-132.638 -42.896,-307.508 89.742,-390.583c132.637,-83.075 307.508,-42.9 390.583,89.741c83.075,132.638 42.896,307.509 -89.742,390.584c-132.637,83.075 -307.508,42.895 -390.583,-89.742" style="fill:#f62584;fill-rule:nonzero;"/><path d="M4168.89,3193.84c-83.075,-132.638 -42.895,-307.508 89.742,-390.584c132.638,-83.075 307.508,-42.9 390.583,89.742c83.075,132.638 42.896,307.508 -89.741,390.583c-132.638,83.075 -307.509,42.896 -390.584,-89.741" style="fill:#00f4d3;fill-rule:nonzero;"/><path d="M6326.39,2500.57c-83.075,-132.638 -42.896,-307.508 89.741,-390.583c132.638,-83.075 307.509,-42.9 390.584,89.741c83.075,132.638 42.896,307.509 -89.742,390.584c-132.637,83.075 -307.508,42.895 -390.583,-89.742" style="fill:#f62584;fill-rule:nonzero;"/><path d="M2682.45,3107.9c-35.613,-56.859 -18.388,-131.825 38.471,-167.438c56.858,-35.612 131.825,-18.387 167.437,38.471c35.613,56.858 18.388,131.825 -38.471,167.437c-56.858,35.613 -131.825,18.388 -167.437,-38.47" style="fill:#f62584;fill-rule:nonzero;"/><path d="M4884.42,2501.34c-191.167,-305.217 -98.709,-707.612 206.504,-898.779c305.216,-191.167 707.612,-98.708 898.779,206.504c191.167,305.217 98.708,707.617 -206.504,898.779c-305.217,191.167 -707.613,98.713 -898.779,-206.504" style="fill:#4cc8ef;fill-rule:nonzero;"/><path d="M1907.86,3829.39c-100.475,-160.421 -51.883,-371.917 108.538,-472.392c160.421,-100.479 371.917,-51.883 472.392,108.537c100.479,160.421 51.883,371.917 -108.538,472.392c-160.417,100.475 -371.917,51.884 -472.392,-108.537" style="fill:#4cc8ef;fill-rule:nonzero;"/><path d="M2335.63,876.635c-100.475,-160.42 -51.883,-371.916 108.537,-472.391c160.421,-100.479 371.917,-51.884 472.392,108.537c100.479,160.421 51.883,371.917 -108.537,472.392c-160.417,100.475 -371.917,51.883 -472.392,-108.538" style="fill:#4361ed;fill-rule:nonzero;"/><path d="M3284.57,2355.46c-89.375,-142.696 -46.15,-330.821 96.546,-420.196c142.692,-89.371 330.821,-46.146 420.192,96.546c89.375,142.696 46.15,330.821 -96.546,420.196c-142.692,89.37 -330.817,46.145 -420.192,-96.546" style="fill:#fde340;fill-rule:nonzero;"/><path d="M4513.14,2547.37c-37.762,-60.296 -19.5,-139.788 40.796,-177.554c60.296,-37.767 139.787,-19.5 177.554,40.795c37.763,60.296 19.5,139.788 -40.796,177.555c-60.296,37.762 -139.787,19.5 -177.554,-40.796" style="fill:#4361ed;fill-rule:nonzero;"/><path d="M3257.19,1097.83c-45.338,-72.387 -23.413,-167.825 48.979,-213.167c72.387,-45.337 167.825,-23.408 213.162,48.98c45.342,72.387 23.413,167.825 -48.975,213.166c-72.391,45.338 -167.829,23.409 -213.166,-48.979" style="fill:#4cc8ef;fill-rule:nonzero;"/><path d="M4070.58,2029.77c-52.038,31.013 -119.359,13.971 -150.371,-38.066c-31.013,-52.034 -13.971,-119.354 38.066,-150.367c207.809,-123.85 276.113,-393.675 152.263,-601.479c-31.013,-52.038 -13.971,-119.358 38.066,-150.371c52.034,-31.012 119.355,-13.971 150.367,38.067c185.775,311.708 83.317,716.441 -228.391,902.216" style="fill:#9a5de4;fill-rule:nonzero;"/><path d="M5359.47,1343.36c-52.038,31.013 -119.359,13.971 -150.371,-38.066c-31.008,-52.034 -13.971,-119.354 38.067,-150.367c207.808,-123.854 276.112,-393.675 152.262,-601.479c-31.012,-52.038 -13.971,-119.358 38.067,-150.371c52.033,-31.012 119.354,-13.971 150.366,38.067c185.775,311.708 83.317,716.441 -228.391,902.216" style="fill:#4361ed;fill-rule:nonzero;"/><path d="M2903.52,2893.16c-91.133,-47.163 -126.779,-159.267 -79.617,-250.4c47.159,-91.134 159.263,-126.78 250.4,-79.617c363.95,188.342 813.263,45.471 1001.61,-318.471c47.158,-91.133 159.262,-126.783 250.4,-79.621c91.133,47.163 126.779,159.271 79.616,250.404c-282.508,545.917 -956.487,760.213 -1502.4,477.705" style="fill:#4361ed;fill-rule:nonzero;"/><path d="M2596.86,1702.68c-40.042,12.975 -83.017,-8.966 -95.992,-49.004c-12.975,-40.037 8.967,-83.012 49.004,-95.987c159.9,-51.821 247.834,-224.063 196.017,-383.963c-12.975,-40.037 8.962,-83.012 49.004,-95.987c40.038,-12.975 83.013,8.962 95.988,49.004c77.725,239.846 -54.171,498.212 -294.021,575.937" style="fill:#f62584;fill-rule:nonzero;"/><path d="M4064.34,3241.31c91.133,47.162 126.779,159.266 79.616,250.4c-47.158,91.133 -159.262,126.779 -250.4,79.616c-363.95,-188.341 -813.262,-45.47 -1001.6,318.471c-47.158,91.134 -159.262,126.784 -250.4,79.621c-91.133,-47.162 -126.779,-159.271 -79.616,-250.404c282.508,-545.917 956.487,-760.213 1502.4,-477.704" style="fill:#4361ed;fill-rule:nonzero;"/><path d="M2040.82,1065.04c109.921,-84.529 267.542,-63.946 352.071,45.971c84.525,109.912 63.95,267.537 -45.971,352.066c-438.962,337.571 -521.446,969.317 -183.875,1408.28c84.525,109.917 63.95,267.538 -45.971,352.071c-109.916,84.529 -267.541,63.946 -352.066,-45.971c-506.354,-658.437 -382.621,-1606.06 275.812,-2112.41" style="fill:#fde340;fill-rule:nonzero;"/><path d="M3072.14,1416.32c-38.271,-46.958 -31.229,-116.046 15.729,-154.312c46.954,-38.271 116.042,-31.229 154.313,15.729c152.833,187.521 429.729,215.742 617.254,62.912c46.954,-38.27 116.042,-31.229 154.312,15.73c38.271,46.954 31.23,116.041 -15.729,154.312c-281.283,229.246 -696.633,186.913 -925.879,-94.371" style="fill:#00f4d3;fill-rule:nonzero;"/><path d="M6335.13,1935.66c-6.142,60.267 -59.975,104.137 -120.237,97.996c-60.263,-6.146 -104.138,-59.975 -97.996,-120.238c24.533,-240.671 -151.309,-456.421 -391.975,-480.954c-60.263,-6.142 -104.138,-59.971 -97.996,-120.237c6.142,-60.263 59.975,-104.134 120.237,-97.992c361,36.796 624.763,360.425 587.967,721.425" style="fill:#00f4d3;fill-rule:nonzero;"/><path d="M4846.89,1451.07c34.579,-11.192 71.684,7.771 82.875,42.35c11.188,34.579 -7.771,71.683 -42.35,82.875c-146.55,47.421 -270.562,138.988 -358.633,264.792c-20.858,29.783 -61.883,37.012 -91.654,16.166c-29.775,-20.841 -37.013,-61.875 -16.171,-91.65c104.629,-149.454 251.917,-258.22 425.933,-314.533" style="fill:#fde340;fill-rule:nonzero;"/><path d="M5929.06,3653.99c-58.188,29.496 -129.267,6.233 -158.763,-51.95c-29.495,-58.187 -6.233,-129.267 51.95,-158.762c246.596,-125 440.909,-321.967 561.938,-569.613c28.667,-58.629 99.392,-82.9 157.992,-54.258c58.612,28.646 82.904,99.379 54.262,157.987c-143.787,294.204 -374.562,528.167 -667.379,676.596" style="fill:#fde340;fill-rule:nonzero;"/><path d="M5188.99,2909.3c34.58,-11.192 71.684,7.77 82.875,42.35c11.188,34.579 -7.77,71.683 -42.35,82.875c-146.55,47.42 -270.562,138.987 -358.633,264.791c-20.858,29.784 -61.883,37.013 -91.654,16.167c-29.775,-20.842 -37.013,-61.875 -16.171,-91.65c104.629,-149.454 251.917,-258.221 425.933,-314.533" style="fill:#4361ed;fill-rule:nonzero;"/><path d="M4351.34,4014.61c-104.35,18.679 -204.087,-50.771 -222.767,-155.121c-18.679,-104.346 50.771,-204.083 155.121,-222.762c442.229,-79.167 836.775,-294.792 1140.98,-623.559c72.038,-77.833 193.455,-82.516 271.25,-10.529c77.813,71.996 82.525,193.438 10.538,271.25c-361.4,390.579 -829.992,646.717 -1355.12,740.721" style="fill:#9a5de4;fill-rule:nonzero;"/><path d="M4567.49,556.925c34.579,-11.192 71.683,7.771 82.875,42.35c11.188,34.579 -7.771,71.683 -42.35,82.875c-146.55,47.421 -270.562,138.988 -358.633,264.792c-20.859,29.783 -61.884,37.012 -91.654,16.166c-29.775,-20.841 -37.013,-61.875 -16.171,-91.65c104.629,-149.454 251.916,-258.22 425.933,-314.533" style="fill:#fde340;fill-rule:nonzero;"/><path d="M3063.93,1627.16c34.579,-11.192 71.683,7.771 82.875,42.35c11.188,34.579 -7.771,71.683 -42.35,82.875c-146.55,47.421 -270.562,138.987 -358.633,264.791c-20.859,29.784 -61.884,37.013 -91.654,16.167c-29.775,-20.842 -37.013,-61.875 -16.171,-91.65c104.629,-149.454 251.916,-258.221 425.933,-314.533" style="fill:#4361ed;fill-rule:nonzero;"/><path d="M6265.12,2552.56c34.579,-11.192 71.683,7.77 82.875,42.35c11.187,34.579 -7.771,71.683 -42.35,82.875c-146.55,47.42 -270.563,138.987 -358.633,264.791c-20.859,29.784 -61.884,37.009 -91.655,16.167c-29.775,-20.842 -37.012,-61.875 -16.171,-91.65c104.63,-149.458 251.917,-258.221 425.934,-314.533" style="fill:#4361ed;fill-rule:nonzero;"/><path d="M3857.11,1039.27c19.13,-6.192 39.655,4.3 45.842,23.425c6.192,19.129 -4.296,39.654 -23.425,45.846c-81.067,26.233 -149.667,76.879 -198.383,146.471c-11.538,16.475 -34.229,20.475 -50.7,8.945c-16.467,-11.529 -20.475,-34.229 -8.946,-50.7c57.879,-82.67 139.354,-142.837 235.612,-173.987" style="fill:#4361ed;fill-rule:nonzero;"/><path d="M2780.71,2114.11c33.771,-35.35 89.804,-36.625 125.154,-2.854c35.35,33.771 36.629,89.804 2.854,125.154c-143.125,149.809 -231.362,337.45 -255.175,542.642c-5.646,48.579 -49.579,83.363 -98.137,77.725c-48.563,-5.637 -83.363,-49.571 -77.73,-98.133c28.292,-243.767 133.08,-466.646 303.034,-644.534" style="fill:#9a5de4;fill-rule:nonzero;"/></svg>